PathFileType	4	(X/Y/Z)	/Users/itak/Documents/Research/Walk-IL/dataset/trc/00288_00010.trc
DataRate	CameraRate	NumFrames	NumMarkers	Units	OrigDataRate	OrigDataStartFrame	OrigNumFrames
100.000000	100.000000	4	53	mm	100.000000	501	669
Frame#	Time	RPSI			LPSI			L3			STRN			T10			C7			CLAV			RBAK			LBAK			LSHO			LUPA			LAEL			LAOL			LWTS			LWPS			LFRA			LHPS			LHTS			RSHO			RUPA			RAEL			RAOL			RWTS			RWPS			RFRA			RIFD			RHPS			RBHD			LFHD			RFHD			LBHD			RHIP			RASI			LASI			LKNE			LTHI			LANK			LTIP			LTOE			LMT1			LMT5			LHEE			RKNE			RTHI			RANK			RTIP			RTOE			RMT1			RMT5			RHEE			LIFD			RHTS			LHIP			
		X1	Y1	Z1	X2	Y2	Z2	X3	Y3	Z3	X4	Y4	Z4	X5	Y5	Z5	X6	Y6	Z6	X7	Y7	Z7	X8	Y8	Z8	X9	Y9	Z9	X10	Y10	Z10	X11	Y11	Z11	X12	Y12	Z12	X13	Y13	Z13	X14	Y14	Z14	X15	Y15	Z15	X16	Y16	Z16	X17	Y17	Z17	X18	Y18	Z18	X19	Y19	Z19	X20	Y20	Z20	X21	Y21	Z21	X22	Y22	Z22	X23	Y23	Z23	X24	Y24	Z24	X25	Y25	Z25	X26	Y26	Z26	X27	Y27	Z27	X28	Y28	Z28	X29	Y29	Z29	X30	Y30	Z30	X31	Y31	Z31	X32	Y32	Z32	X33	Y33	Z33	X34	Y34	Z34	X35	Y35	Z35	X36	Y36	Z36	X37	Y37	Z37	X38	Y38	Z38	X39	Y39	Z39	X40	Y40	Z40	X41	Y41	Z41	X42	Y42	Z42	X43	Y43	Z43	X44	Y44	Z44	X45	Y45	Z45	X46	Y46	Z46	X47	Y47	Z47	X48	Y48	Z48	X49	Y49	Z49	X50	Y50	Z50	X51	Y51	Z51	X52	Y52	Z52	X53	Y53	Z53	

502	5.01	699.6490478515625	987.296875	666.9298706054688	804.8953247070312	976.2041015625	806.84423828125	744.0187377929688	1049.806274414062	751.0869140625	553.385009765625	1237.19921875	899.6118774414062	764.3847045898438	1169.843017578125	737.9976806640625	738.500244140625	1416.37841796875	773.7045288085938	607.275634765625	1335.90087890625	860.6676635742188	736.745849609375	1276.447143554688	682.1805419921875	812.0494384765625	1382.092041015625	848.2492065429688	770.4627075195312	1391.277587890625	944.6913452148438	846.3418579101562	1277.054931640625	979.3245849609375	871.2063598632812	1074.990112304688	974.4865112304688	866.19482421875	1066.62109375	888.5097045898438	809.806884765625	839.666015625	978.6677856445312	880.89453125	835.7161865234375	994.3568725585938	881.2744140625	969.720947265625	981.830810546875	887.359375	747.8385009765625	980.9508056640625	822.7374877929688	738.4609375	993.9224853515625	593.6141967773438	1390.199584960938	680.9640502929688	562.0740966796875	1331.597778320312	623.2276611328125	539.482666015625	1069.402709960938	565.9956665039062	616.929931640625	1057.69921875	619.5724487304688	457.8568115234375	884.2553100585938	711.9141235351562	440.0080871582031	864.9610595703125	630.6852416992188	503.026611328125	1007.108825683594	581.5616455078125	422.8009643554688	705.3284301757812	752.0977172851562	404.9867858886719	764.1005249023438	671.5814819335938	678.0958251953125	1577.6181640625	731.567138671875	571.5752563476562	1600.8740234375	915.9329223632812	531.006591796875	1593.316528320312	828.8826904296875	738.9991455078125	1577.586303710938	866.2886352539062	555.6864013671875	937.177978515625	646.8778686523438	505.4975280761719	945.7415161132812	774.8696899414062	667.3206176757812	943.7792358398438	968.4608154296875	656.7062377929688	497.8224487304688	1064.900024414062	705.1401977539062	631.395751953125	1036.43115234375	900.0582275390625	147.1996612548828	909.9812622070312	778.117919921875	313.2412414550781	1002.863220214844	733.5216674804688	37.87491989135742	975.9312744140625	758.3779907226562	55.34431838989258	901.966796875	831.2911987304688	80.20779418945312	983.9600219726562	894.5880737304688	163.9234771728516	837.9708862304688	563.534423828125	469.2972717285156	781.838134765625	513.3866577148438	723.8255615234375	717.5061645507812	679.7857055664062	39.51024627685547	784.7523193359375	581.2830810546875	346.7128601074219	813.1854858398438	620.7434692382812	39.95449447631836	977.6910400390625	684.862060546875	35.57480239868164	948.7894287109375	605.2217407226562	32.78889083862305	861.2290649414062	747.64306640625	32.259521484375	766.8004150390625	832.7496948242188	659.478515625	957.0767822265625	406.4568176269531	778.5043334960938	741.3173828125	805.6318969726562	930.0978393554688	923.6019897460938	
503	5.02	698.3896484375	987.9298095703125	673.6697387695312	800.623291015625	977.037109375	815.6951904296875	740.3231811523438	1050.626831054688	757.9228515625	548.0736083984375	1238.223999023438	903.9185791015625	760.409912109375	1170.751831054688	743.7801513671875	734.1193237304688	1417.224243164062	779.4686279296875	602.5612182617188	1336.77392578125	865.514404296875	732.9541625976562	1277.719360351562	687.5318603515625	807.3898315429688	1382.709594726562	854.1759033203125	765.3751831054688	1391.97705078125	950.46044921875	842.1390991210938	1278.386840820312	984.9014282226562	869.0686645507812	1076.702758789062	979.1396484375	864.5726318359375	1068.744018554688	893.1051025390625	809.1207885742188	841.0731811523438	982.5564575195312	880.197021484375	837.2265625	998.4440307617188	879.8558959960938	971.4533081054688	986.227783203125	886.8927001953125	749.3352661132812	984.4563598632812	822.1021118164062	739.6889038085938	996.7044677734375	589.5963745117188	1391.282470703125	686.0808715820312	558.0162963867188	1332.648803710938	628.3487548828125	532.7357177734375	1070.314819335938	571.72314453125	610.4220581054688	1058.063598632812	624.746826171875	449.811767578125	889.6694946289062	722.6082153320312	430.2360534667969	869.1861572265625	642.0265502929688	495.3294677734375	1008.987243652344	588.9271850585938	411.546875	712.2593994140625	766.77978515625	393.7058410644531	769.9208374023438	685.3928833007812	673.5377197265625	1578.718383789062	738.0270385742188	565.9208984375	1600.86328125	921.7666015625	525.8871459960938	1593.5673828125	834.4118041992188	733.677001953125	1578.227783203125	872.992919921875	554.7840576171875	937.57666015625	650.634033203125	501.8145751953125	946.5145263671875	777.5914306640625	659.6595458984375	945.3255004882812	974.471923828125	643.1621704101562	500.7679138183594	1072.49267578125	693.42236328125	633.73583984375	1044.749145507812	881.7720336914062	138.5650024414062	936.9820556640625	762.1941528320312	311.3996887207031	1019.703369140625	709.3231811523438	38.61700057983398	1002.399719238281	737.0267944335938	51.45082855224609	928.4401245117188	808.0517578125	77.647705078125	1011.493957519531	879.3348999023438	152.0904388427734	864.0982055664062	562.65283203125	469.3247985839844	783.250244140625	512.2736206054688	724.2223510742188	719.9409790039062	679.9044189453125	39.69329833984375	784.921142578125	580.6219482421875	346.5265197753906	814.3030395507812	620.60205078125	39.91229629516602	977.7410278320312	684.7584228515625	35.61148834228516	948.8612060546875	605.2190551757812	32.76763153076172	861.2763061523438	747.7892456054688	32.59272384643555	767.0203857421875	832.2440185546875	661.15771484375	959.4188232421875	396.5776062011719	785.6002197265625	754.7991943359375	798.8525390625	931.222412109375	932.6123657226562	
504	5.03	697.0371704101562	988.4841918945312	680.4425048828125	796.285888671875	977.8265380859375	824.5092163085938	736.6884765625	1051.593872070312	764.6869506835938	542.7705688476562	1239.16162109375	908.1889038085938	756.3870239257812	1171.59619140625	749.5549926757812	729.716796875	1418.0234375	785.2012939453125	597.8246459960938	1337.524047851562	870.3157348632812	729.1504516601562	1278.939819335938	692.8765258789062	802.7135620117188	1383.289306640625	860.0933227539062	760.220947265625	1392.625366210938	956.1971435546875	837.8229370117188	1279.703125	990.530517578125	866.6915893554688	1078.396362304688	984.1005859375	863.0238037109375	1070.843139648438	897.9800415039062	807.9909057617188	842.4453735351562	986.4383544921875	878.9967041015625	838.8080444335938	1003.021423339844	878.0685424804688	973.1917114257812	991.0220947265625	886.1448974609375	750.9395751953125	988.5841064453125	821.1401977539062	740.8443603515625	999.6209106445312	585.5804443359375	1392.324462890625	691.1631469726562	553.9353637695312	1333.701904296875	633.3993530273438	526.0302734375	1071.264038085938	577.2988891601562	603.9331665039062	1058.4482421875	629.8056640625	441.8381042480469	895.3016357421875	733.0281982421875	420.6063537597656	873.6021728515625	653.1580200195312	487.7314453125	1010.9306640625	596.0816040039062	400.4192504882812	719.6241455078125	781.3741455078125	382.5952758789062	776.0443725585938	699.0396728515625	668.9656982421875	1579.722290039062	744.4678344726562	560.332275390625	1600.804565429688	927.5900268554688	520.793212890625	1593.796508789062	839.9571533203125	728.390869140625	1578.759399414062	879.6332397460938	553.8242797851562	938.0054931640625	654.4678955078125	498.1832885742188	947.1917114257812	780.3516845703125	652.060791015625	946.8114624023438	980.3837890625	630.1220703125	503.5023803710938	1079.53271484375	682.0579833984375	635.8759765625	1052.55322265625	862.0481567382812	129.9191589355469	963.51171875	745.8296508789062	309.4069519042969	1036.038818359375	683.7327880859375	39.66202163696289	1027.14892578125	714.250244140625	48.00577545166016	953.651611328125	783.388916015625	75.14769744873047	1037.822509765625	862.6494140625	140.3722686767578	890.0776977539062	561.7791748046875	469.3532104492188	784.8278198242188	511.13916015625	724.6273193359375	722.4608154296875	680.0593872070312	39.89539337158203	785.1116943359375	580.011474609375	346.2823791503906	815.5597534179688	620.4599609375	39.85565948486328	977.8140258789062	684.65283203125	35.63374710083008	948.9400634765625	605.226318359375	32.77194595336914	861.3313598632812	747.9680786132812	32.93315124511719	767.2638549804688	831.9916381835938	662.8533935546875	961.9430541992188	386.7548522949219	793.0789794921875	768.0645751953125	792.0502319335938	932.302734375	941.60888671875	
505	5.04	695.571533203125	988.9580688476562	687.2398681640625	791.8823852539062	978.5509033203125	833.2597045898438	733.105712890625	1052.711059570312	771.3533935546875	537.4791259765625	1239.989990234375	912.414306640625	752.3067626953125	1172.353393554688	755.36474609375	725.2948608398438	1418.755981445312	790.9137573242188	593.0565185546875	1338.140014648438	875.0717163085938	725.3388061523438	1280.07568359375	698.2399291992188	798.0036010742188	1383.820678710938	866.0200805664062	754.990234375	1393.210205078125	961.9192504882812	833.3854370117188	1280.984985351562	996.2191162109375	864.0884399414062	1080.038696289062	989.3255615234375	861.4603881835938	1072.903442382812	903.0960693359375	806.4580688476562	843.7470092773438	990.3031005859375	877.3490600585938	840.427001953125	1007.994445800781	875.953125	974.9036865234375	996.1375732421875	885.14013671875	752.6172485351562	993.2713623046875	819.901123046875	741.92822265625	1002.743225097656	581.5853271484375	1393.302978515625	696.1987915039062	549.8641357421875	1334.734741210938	638.3641967773438	519.3603515625	1072.213012695312	582.7528686523438	597.4672241210938	1058.824584960938	634.7743530273438	433.9143371582031	901.1082153320312	743.1585083007812	411.1196899414062	878.1746826171875	664.091064453125	480.2281494140625	1012.898986816406	603.051025390625	389.4232788085938	727.384765625	795.8659057617188	371.6644592285156	782.435302734375	712.5218505859375	664.3890991210938	1580.622680664062	750.8781127929688	554.8049926757812	1600.691162109375	933.401611328125	515.731201171875	1593.995239257812	845.5104370117188	723.1390991210938	1579.16943359375	886.2093505859375	552.8143920898438	938.440673828125	658.3761596679688	494.5731506347656	947.7484741210938	783.1563720703125	644.5585327148438	948.1989135742188	986.1842041015625	617.6174926757812	506.0002746582031	1086.115112304688	671.1015625	637.78515625	1059.891235351562	840.8350830078125	121.390495300293	989.4091186523438	728.9673461914062	307.2649230957031	1051.867309570312	656.841064453125	41.05074310302734	1050.047729492188	690.1177368164062	45.07367324829102	977.42626953125	757.340576171875	72.77784729003906	1062.806518554688	844.4727783203125	128.9170684814453	915.7190551757812	560.8781127929688	469.3723754882812	786.5385131835938	509.9356689453125	724.9712524414062	725.109130859375	680.2527465820312	40.1088752746582	785.3198852539062	579.4260864257812	345.9901733398438	816.9307861328125	620.3101806640625	39.78679275512695	977.9085083007812	684.5493774414062	35.64539337158203	949.0243530273438	605.240966796875	32.80301284790039	861.3837280273438	748.1739501953125	33.26931762695312	767.53271484375	831.9614868164062	664.5113525390625	964.7960815429688	377.0050048828125	800.89404296875	781.1128540039062	785.26904296875	933.3292236328125	950.5201416015625	
